<svg width="30" height="33" viewBox="0 0 30 33" fill="none" xmlns="http://www.w3.org/2000/svg">
<path d="M29.3104 25.5912C29.1697 23.9027 27.9736 22.4955 26.3202 22.1086L21.5008 20.9828C22.7672 19.1536 23.4707 16.9373 23.4707 14.5804V13.0677C23.7522 12.9622 24.0336 12.7863 24.2799 12.5752C24.6668 12.1882 24.8779 11.6606 24.8779 11.0977C24.8779 10.1831 24.315 9.40913 23.4707 9.12771V6.17272C23.4707 2.86594 20.7972 0.192383 17.4904 0.192383H13.269C9.96222 0.192383 7.28866 2.86594 7.28866 6.17272V9.09253C7.00724 9.19806 6.72581 9.37396 6.47956 9.58503C6.0926 10.0072 5.88153 10.5348 5.88153 11.0977C5.88153 12.0123 6.44438 12.7863 7.28866 13.0677V14.5804C7.28866 16.9373 7.99223 19.1536 9.25866 21.018L4.43921 22.1437C2.78582 22.5307 1.58975 23.9378 1.44904 25.6264L0.956543 32.1696C0.956543 32.2751 0.991721 32.3807 1.06208 32.451C1.13244 32.5214 1.20279 32.5565 1.30833 32.5565H15.3797H29.4511C29.5566 32.5565 29.627 32.5214 29.6973 32.451C29.7677 32.3807 29.8029 32.2751 29.8029 32.1696L29.3104 25.5912ZM24.1743 11.0977C24.1743 11.4847 24.0336 11.8364 23.7522 12.0827C23.6818 12.1531 23.5763 12.2586 23.4707 12.2938V9.86645C23.8929 10.1127 24.1743 10.57 24.1743 11.0977ZM13.269 0.895952H17.4904C20.4102 0.895952 22.7672 3.25291 22.7672 6.17272V8.98699C20.0233 8.84628 19.6011 7.22807 19.6011 7.15771C19.5659 7.017 19.4604 6.91147 19.3549 6.87629C19.2142 6.84111 19.0734 6.87629 19.0031 6.98182C17.7015 8.56485 10.912 8.95181 7.99223 8.98699V6.17272C7.99223 3.25291 10.3492 0.895952 13.269 0.895952ZM9.39937 9.65538C12.1785 9.54985 17.2442 9.19806 19.1086 7.8261C19.39 8.35378 20.0233 9.09253 21.36 9.47949V12.5752C21.36 13.912 20.2695 14.9673 18.9679 14.9673H11.7915C10.4547 14.9673 9.39937 13.8768 9.39937 12.5752V9.65538ZM6.58509 11.0977C6.58509 10.7107 6.72581 10.359 7.00724 10.1127C7.07759 10.0423 7.18313 9.93681 7.28866 9.90163V12.3289C6.86652 12.0827 6.58509 11.6254 6.58509 11.0977ZM7.99223 9.69056C8.16812 9.69056 8.41437 9.69056 8.6958 9.69056V12.5752C8.6958 14.2989 10.1029 15.6709 11.7915 15.6709H18.9327C20.6565 15.6709 22.0284 14.2638 22.0284 12.5752V9.6202C22.2395 9.65538 22.4858 9.69056 22.732 9.69056V14.5804C22.732 16.9725 21.9581 19.1887 20.6213 20.9828L20.5861 21.018C19.2845 22.7418 17.4904 24.0785 15.3445 24.7821C13.1986 24.0785 11.4045 22.7418 10.1029 21.018C10.1029 20.9828 10.0678 20.9828 10.0678 20.9828C8.73098 19.1887 7.95705 16.9373 7.95705 14.5804V9.69056H7.99223ZM24.1743 31.853V29.3905C24.1743 29.1794 24.0336 29.0387 23.8225 29.0387C23.6115 29.0387 23.4707 29.1794 23.4707 29.3905V31.853H15.3797H7.28866V29.3905C7.28866 29.1794 7.14795 29.0387 6.93688 29.0387C6.72581 29.0387 6.58509 29.1794 6.58509 29.3905V31.853H1.69529L2.18779 25.6616C2.29332 24.2896 3.27832 23.1287 4.6151 22.8121L9.71598 21.6161C11.0879 23.4102 13.0227 24.7821 15.2742 25.4857C15.3093 25.4857 15.3445 25.4857 15.3797 25.4857C15.4149 25.4857 15.4501 25.4857 15.4852 25.4857C17.7718 24.7469 19.6715 23.375 21.0434 21.6161L26.1443 22.8121C27.5163 23.1287 28.4661 24.2544 28.5716 25.6616L29.0641 31.853H24.1743Z" fill="black"/>
<path d="M11.51 12.5048C11.7211 12.5048 11.8618 12.3641 11.8618 12.153C11.8618 11.766 12.1784 11.4494 12.5653 11.4494C12.9523 11.4494 13.2689 11.766 13.2689 12.153C13.2689 12.3641 13.4096 12.5048 13.6207 12.5048C13.8318 12.5048 13.9725 12.3641 13.9725 12.153C13.9725 11.3791 13.3393 10.7458 12.5653 10.7458C11.7914 10.7458 11.1582 11.3791 11.1582 12.153C11.1582 12.3641 11.2989 12.5048 11.51 12.5048Z" fill="black"/>
<path d="M17.1384 12.5048C17.3495 12.5048 17.4902 12.3641 17.4902 12.153C17.4902 11.766 17.8068 11.4494 18.1938 11.4494C18.5807 11.4494 18.8973 11.766 18.8973 12.153C18.8973 12.3641 19.038 12.5048 19.2491 12.5048C19.4602 12.5048 19.6009 12.3641 19.6009 12.153C19.6009 11.3791 18.9677 10.7458 18.1938 10.7458C17.4198 10.7458 16.7866 11.3791 16.7866 12.153C16.7866 12.3641 16.9273 12.5048 17.1384 12.5048Z" fill="black"/>
<path d="M14.2543 17.5706C14.5709 17.7113 14.9579 17.7816 15.38 17.7816C16.4354 17.7816 17.1389 17.3595 17.1389 16.7263C17.1389 16.5152 16.9982 16.3745 16.7872 16.3745C16.5761 16.3745 16.4354 16.5152 16.4354 16.7263C16.4354 16.867 16.0132 17.0781 15.38 17.0781C14.7468 17.0781 14.3247 16.867 14.3247 16.7263C14.3247 16.5152 14.1839 16.3745 13.9729 16.3745C13.7618 16.3745 13.6211 16.5152 13.6211 16.7263C13.6211 16.9374 13.6915 17.3243 14.2543 17.5706Z" fill="black"/>
</svg>
