<svg width="39" height="48" viewBox="0 0 39 48" fill="none" xmlns="http://www.w3.org/2000/svg">
<path d="M24.5528 38.3859C22.0045 38.3859 19.72 37.8067 17.6993 36.6484C15.6786 35.49 14.0827 33.8104 12.9115 31.6096C11.7403 29.4087 11.1547 26.7509 11.1547 23.6363C11.1547 20.4959 11.7403 17.8253 12.9115 15.6244C14.0956 13.4107 15.6979 11.7311 17.7186 10.5856C19.7522 9.42727 22.0302 8.8481 24.5528 8.8481C26.226 8.8481 27.7769 9.0862 29.2055 9.56241C30.6342 10.0258 31.8955 10.7079 32.9894 11.6088C34.0963 12.4969 34.9972 13.5909 35.6923 14.8908C36.3873 16.1778 36.8313 17.6515 37.0243 19.3118H30.8851C30.7693 18.5267 30.5376 17.8188 30.1901 17.1882C29.8555 16.5575 29.4115 16.0234 28.858 15.5858C28.3175 15.1482 27.6932 14.8136 26.9854 14.5819C26.2904 14.3374 25.5246 14.2151 24.688 14.2151C23.2207 14.2151 21.9273 14.5883 20.8075 15.3348C19.7007 16.0684 18.8383 17.1367 18.2206 18.5396C17.6157 19.9296 17.3132 21.6285 17.3132 23.6363C17.3132 25.6827 17.6221 27.4073 18.2399 28.8102C18.8577 30.2002 19.72 31.2492 20.8268 31.9571C21.9337 32.6649 23.2143 33.0189 24.6687 33.0189C25.4795 33.0189 26.2324 32.9095 26.9274 32.6907C27.6225 32.4719 28.2402 32.1566 28.7808 31.7447C29.3214 31.3328 29.7718 30.8309 30.1322 30.2389C30.5054 29.6339 30.7564 28.9454 30.8851 28.1731H37.0243C36.8699 29.4988 36.4774 30.773 35.8467 31.9957C35.2289 33.2184 34.3859 34.3124 33.3176 35.2776C32.2494 36.2301 30.9817 36.9894 29.5144 37.5557C28.0472 38.1092 26.3933 38.3859 24.5528 38.3859Z" fill="white"/>
<path d="M14.8615 38.3859C17.4099 38.3859 19.6944 37.8067 21.7151 36.6484C23.7357 35.49 25.3317 33.8104 26.5029 31.6096C27.6741 29.4087 28.2597 26.7509 28.2597 23.6363C28.2597 20.4959 27.6741 17.8253 26.5029 15.6244C25.3188 13.4107 23.7164 11.7311 21.6958 10.5856C19.6622 9.42727 17.3841 8.8481 14.8615 8.8481C13.1884 8.8481 11.6375 9.0862 10.2088 9.56241C8.78022 10.0258 7.51891 10.7079 6.42492 11.6088C5.31806 12.4969 4.41712 13.5909 3.72212 14.8908C3.02711 16.1778 2.58308 17.6515 2.39002 19.3118H8.52924C8.64508 18.5267 8.87675 17.8188 9.22425 17.1882C9.55888 16.5575 10.0029 16.0234 10.5563 15.5858C11.0969 15.1482 11.7211 14.8136 12.429 14.5819C13.124 14.3374 13.8898 14.2151 14.7264 14.2151C16.1936 14.2151 17.4871 14.5883 18.6068 15.3348C19.7137 16.0684 20.576 17.1367 21.1938 18.5396C21.7987 19.9296 22.1012 21.6285 22.1012 23.6363C22.1012 25.6827 21.7923 27.4073 21.1745 28.8102C20.5567 30.2002 19.6944 31.2492 18.5875 31.9571C17.4807 32.6649 16.2001 33.0189 14.7457 33.0189C13.9348 33.0189 13.1819 32.9095 12.4869 32.6907C11.7919 32.4719 11.1741 32.1566 10.6336 31.7447C10.093 31.3328 9.64254 30.8309 9.28217 30.2389C8.90892 29.6339 8.65795 28.9454 8.52924 28.1731H2.39002C2.54447 29.4988 2.93702 30.773 3.56767 31.9957C4.18545 33.2184 5.02847 34.3124 6.09672 35.2776C7.16497 36.2301 8.43271 36.9894 9.89995 37.5557C11.3672 38.1092 13.021 38.3859 14.8615 38.3859Z" fill="white"/>
</svg>
