<svg width="32" height="36" viewBox="0 0 32 36" fill="none" xmlns="http://www.w3.org/2000/svg">
<path d="M31.268 27.6478C31.1153 25.8145 29.8167 24.2867 28.0216 23.8666L24.9279 23.1791V13.8216C24.9279 13.7453 24.9279 13.7071 24.8897 13.6689C25.3862 13.2487 25.6918 12.6376 25.6918 11.912C25.6918 11.2245 25.3862 10.6134 24.9279 10.1932V6.56483C24.9279 2.97462 22.0252 0.0718994 18.4349 0.0718994H13.8517C10.2615 0.0718994 7.35876 2.97462 7.35876 6.56483V10.1932C6.90043 10.6134 6.59488 11.2245 6.59488 11.912C6.59488 12.5994 6.90043 13.2487 7.39695 13.6689C7.35876 13.7071 7.35876 13.7453 7.35876 13.8216V23.1791L4.26507 23.9048C2.46996 24.3249 1.17137 25.8527 1.0186 27.686L0.483887 34.79C0.483887 34.9046 0.522081 35.0192 0.598468 35.0956C0.674855 35.1719 0.751243 35.2101 0.865824 35.2101H16.1433H31.4208C31.5354 35.2101 31.6118 35.1719 31.6882 35.0956C31.7646 35.0192 31.8028 34.9046 31.8028 34.79L31.268 27.6478ZM24.164 22.9881L19.5808 21.9187V19.9326C19.5808 19.8944 19.5808 19.8563 19.5426 19.8563C21.605 18.7486 23.0946 16.648 23.3237 14.2036H23.4001C23.6675 14.2036 23.9348 14.1654 24.164 14.0508V22.9881ZM16.1433 26.0436C12.7823 26.0436 11.5219 23.752 11.2163 23.0645L12.8205 22.6826C13.0878 23.3319 13.9281 24.5159 16.1051 24.5159C18.2822 24.5159 19.1224 23.2937 19.3898 22.6826L20.9939 23.0645C20.7648 23.7138 19.4662 26.0436 16.1433 26.0436ZM9.65038 10.0023C11.3691 9.96408 17.3655 9.8113 19.428 8.35994C19.7717 8.97104 20.612 9.88769 22.6363 10.0023V13.4397C22.6363 17.0299 19.7335 19.9326 16.1433 19.9326C12.5531 19.9326 9.65038 17.0299 9.65038 13.4397V10.0023ZM19.5808 5.80096C20.0009 5.80096 20.3446 6.1447 20.3446 6.56483C20.3446 6.98497 20.0009 7.32871 19.5808 7.32871C19.1606 7.32871 18.8169 6.98497 18.8169 6.56483C18.8169 6.1447 19.1606 5.80096 19.5808 5.80096ZM16.1433 20.6965C17.0982 20.6965 17.9766 20.5055 18.8169 20.1618V22.1479C18.7405 22.377 18.2822 23.7138 16.1433 23.7138C14.0045 23.7138 13.5461 22.377 13.4698 22.1479V20.1618C14.31 20.5055 15.1885 20.6965 16.1433 20.6965ZM23.4001 13.4397V10.3842C24.2404 10.3842 24.9279 11.0717 24.9279 11.912C24.9279 12.7522 24.2404 13.4397 23.4001 13.4397ZM8.12263 6.56483C8.12263 3.39475 10.6816 0.835774 13.8517 0.835774H18.4349C21.605 0.835774 24.164 3.39475 24.164 6.56483V9.77311C23.9348 9.69672 23.6675 9.62033 23.4001 9.62033C23.4001 9.39117 23.2474 9.2384 23.0182 9.2384C21.1085 9.2384 20.3828 8.47452 20.1155 7.978C20.6884 7.74884 21.1085 7.21413 21.1085 6.56483C21.1085 5.83915 20.612 5.26625 19.9627 5.07528V3.89127C19.9627 3.66211 19.8099 3.50934 19.5808 3.50934C19.3516 3.50934 19.1988 3.66211 19.1988 3.89127V5.07528C18.5495 5.22805 18.053 5.83915 18.053 6.56483C18.053 7.09955 18.3586 7.59607 18.7787 7.86342C16.9072 8.97104 11.4073 9.2384 9.26845 9.2384C9.03928 9.2384 8.88651 9.39117 8.88651 9.62033C8.61915 9.62033 8.3518 9.65853 8.12263 9.77311V6.56483ZM8.88651 10.3842V13.4397C8.04625 13.4397 7.35876 12.7522 7.35876 11.912C7.35876 11.0717 8.04625 10.3842 8.88651 10.3842ZM8.12263 14.0508C8.3518 14.1272 8.61915 14.2036 8.88651 14.2036H8.9247C9.19206 16.648 10.6434 18.7104 12.7059 19.8563C12.7059 19.8944 12.6677 19.9326 12.6677 19.9326V21.9187L8.12263 22.9881V14.0508ZM25.6918 34.4463V31.7727C25.6918 31.5435 25.539 31.3908 25.3098 31.3908C25.0807 31.3908 24.9279 31.5435 24.9279 31.7727V34.4463H16.1433H7.35876V31.7727C7.35876 31.5435 7.20598 31.3908 6.97682 31.3908C6.74766 31.3908 6.59488 31.5435 6.59488 31.7727V34.4463H1.28596L1.82067 27.7242C1.93525 26.2346 3.00467 24.9742 4.45604 24.6305L10.4906 23.2173C10.7198 23.8284 12.133 26.8075 16.1433 26.8075C20.1537 26.8075 21.5668 23.8284 21.796 23.2173L27.8306 24.6305C29.282 24.9742 30.3514 26.1964 30.466 27.7242L31.0007 34.4463H25.6918Z" fill="black"/>
<path d="M13.0878 14.2037C13.9281 14.2037 14.6156 13.5162 14.6156 12.6759C14.6156 11.8357 13.9281 11.1482 13.0878 11.1482C12.2475 11.1482 11.5601 11.8357 11.5601 12.6759C11.5601 13.5162 12.2475 14.2037 13.0878 14.2037ZM13.0878 11.9121C13.5079 11.9121 13.8517 12.2558 13.8517 12.6759C13.8517 13.0961 13.5079 13.4398 13.0878 13.4398C12.6677 13.4398 12.3239 13.0961 12.3239 12.6759C12.3239 12.2558 12.6677 11.9121 13.0878 11.9121Z" fill="black"/>
<path d="M19.1991 14.2037C20.0394 14.2037 20.7269 13.5162 20.7269 12.6759C20.7269 11.8357 20.0394 11.1482 19.1991 11.1482C18.3589 11.1482 17.6714 11.8357 17.6714 12.6759C17.6714 13.5162 18.3589 14.2037 19.1991 14.2037ZM19.1991 11.9121C19.6193 11.9121 19.963 12.2558 19.963 12.6759C19.963 13.0961 19.6193 13.4398 19.1991 13.4398C18.779 13.4398 18.4353 13.0961 18.4353 12.6759C18.4353 12.2558 18.779 11.9121 19.1991 11.9121Z" fill="black"/>
<path d="M13.9283 17.03C13.8137 17.1827 13.8137 17.4501 14.0047 17.5647C14.6922 18.1376 15.4178 18.4049 16.1435 18.4049C16.8692 18.4049 17.5949 18.1376 18.2824 17.5647C18.4352 17.4501 18.4733 17.1827 18.3588 17.03C18.2442 16.8772 17.9768 16.839 17.8241 16.9536C16.6782 17.8702 15.6088 17.8702 14.463 16.9536C14.3102 16.839 14.0811 16.839 13.9283 17.03Z" fill="black"/>
</svg>
