<svg width="44" height="44" viewBox="0 0 44 44" fill="none" xmlns="http://www.w3.org/2000/svg">
<circle cx="22" cy="22" r="22" fill="#9B8338"/>
<path d="M26.2109 33.2903C24.2946 33.2903 22.5767 32.8548 21.0572 31.9838C19.5377 31.1127 18.3376 29.8497 17.4569 28.1947C16.5762 26.5398 16.1358 24.5412 16.1358 22.1991C16.1358 19.8376 16.5762 17.8293 17.4569 16.1743C18.3473 14.5097 19.5522 13.2467 21.0717 12.3853C22.6009 11.5143 24.3139 11.0787 26.2109 11.0787C27.469 11.0787 28.6353 11.2578 29.7096 11.6159C30.7838 11.9643 31.7323 12.4773 32.555 13.1547C33.3873 13.8225 34.0648 14.6452 34.5874 15.6227C35.11 16.5905 35.4439 17.6987 35.5891 18.9472H30.9726C30.8855 18.3568 30.7113 17.8245 30.4499 17.3503C30.1983 16.876 29.8644 16.4744 29.4482 16.1453C29.0418 15.8163 28.5724 15.5646 28.0401 15.3904C27.5174 15.2065 26.9416 15.1146 26.3125 15.1146C25.2092 15.1146 24.2365 15.3952 23.3945 15.9566C22.5622 16.5082 21.9137 17.3115 21.4492 18.3665C20.9943 19.4117 20.7668 20.6893 20.7668 22.1991C20.7668 23.7379 20.9991 25.0348 21.4637 26.0897C21.9282 27.135 22.5767 27.9238 23.409 28.4561C24.2413 28.9884 25.2043 29.2545 26.298 29.2545C26.9077 29.2545 27.4739 29.1722 27.9965 29.0077C28.5191 28.8432 28.9837 28.6061 29.3902 28.2964C29.7967 27.9867 30.1354 27.6092 30.4064 27.164C30.6871 26.7091 30.8758 26.1913 30.9726 25.6106H35.5891C35.473 26.6075 35.1778 27.5657 34.7035 28.4851C34.239 29.4045 33.6051 30.2272 32.8018 30.953C31.9985 31.6692 31.0452 32.2403 29.9418 32.6661C28.8385 33.0823 27.5949 33.2903 26.2109 33.2903Z" fill="white"/>
<path d="M18.9232 33.2903C20.8395 33.2903 22.5574 32.8548 24.0769 31.9838C25.5964 31.1127 26.7965 29.8497 27.6772 28.1947C28.5579 26.5398 28.9983 24.5412 28.9983 22.1991C28.9983 19.8376 28.5579 17.8293 27.6772 16.1743C26.7868 14.5097 25.5819 13.2467 24.0624 12.3853C22.5332 11.5143 20.8202 11.0787 18.9232 11.0787C17.6651 11.0787 16.4988 11.2578 15.4245 11.6159C14.3503 11.9643 13.4018 12.4773 12.5791 13.1547C11.7468 13.8225 11.0693 14.6452 10.5467 15.6227C10.0241 16.5905 9.69017 17.6987 9.545 18.9472H14.1615C14.2486 18.3568 14.4228 17.8245 14.6842 17.3503C14.9358 16.876 15.2697 16.4744 15.6859 16.1453C16.0923 15.8163 16.5617 15.5646 17.094 15.3904C17.6167 15.2065 18.1925 15.1146 18.8216 15.1146C19.9249 15.1146 20.8976 15.3952 21.7396 15.9566C22.5719 16.5082 23.2204 17.3115 23.6849 18.3665C24.1398 19.4117 24.3673 20.6893 24.3673 22.1991C24.3673 23.7379 24.135 25.0348 23.6704 26.0897C23.2059 27.135 22.5574 27.9238 21.7251 28.4561C20.8928 28.9884 19.9298 29.2545 18.8361 29.2545C18.2264 29.2545 17.6602 29.1722 17.1376 29.0077C16.615 28.8432 16.1504 28.6061 15.7439 28.2964C15.3374 27.9867 14.9987 27.6092 14.7277 27.164C14.447 26.7091 14.2583 26.1913 14.1615 25.6106H9.545C9.66114 26.6075 9.95633 27.5657 10.4306 28.4851C10.8951 29.4045 11.529 30.2272 12.3323 30.953C13.1356 31.6692 14.0889 32.2403 15.1923 32.6661C16.2956 33.0823 17.5392 33.2903 18.9232 33.2903Z" fill="white"/>
</svg>
