<svg width="20" height="38" viewBox="0 0 20 38" fill="none" xmlns="http://www.w3.org/2000/svg">
<path d="M19.217 10.8958H17.3711C17.1852 5.28685 14.4622 0.820312 11.1401 0.820312C10.8446 0.820312 10.5534 0.857923 10.2684 0.926937C9.9928 0.858357 9.71198 0.820312 9.42553 0.820312C6.21323 0.820312 3.58053 5.28648 3.40078 10.8958H1.51352C1.17574 10.8958 0.901855 11.1697 0.901855 11.5078V36.4727C0.901855 36.8104 1.17574 37.0843 1.51352 37.0843H19.2166C19.5549 37.0843 19.8287 36.8107 19.8287 36.4727V11.5078C19.8295 11.1697 19.5557 10.8958 19.217 10.8958ZM16.8812 10.8958H15.4507C15.3061 6.38969 13.5784 2.62232 11.24 1.31438C14.2498 1.40491 16.7033 5.61444 16.8812 10.8958ZM10.2677 1.42729C12.82 2.14529 14.8044 6.07538 14.9604 10.8959H5.39979C5.56236 6.07538 7.62021 2.14529 10.2677 1.42729ZM9.25935 1.31777C6.84366 2.62889 5.05999 6.39359 4.91063 10.8958H3.89081C4.06052 5.6579 6.3893 1.47378 9.25935 1.31777ZM18.6055 35.8603H2.12576V12.1198H18.6055V35.8603Z" fill="black"/>
</svg>
