<svg width="23" height="23" viewBox="0 0 23 23" fill="none" xmlns="http://www.w3.org/2000/svg">
<path d="M11.1264 16.6897C12.6656 16.6897 13.9776 16.1472 15.0624 15.0624C16.1472 13.9776 16.6897 12.6656 16.6897 11.1264C16.6897 9.58728 16.1472 8.27529 15.0624 7.19046C13.9776 6.10563 12.6656 5.56322 11.1264 5.56322C9.58728 5.56322 8.27529 6.10563 7.19046 7.19046C6.10563 8.27529 5.56322 9.58728 5.56322 11.1264C5.56322 12.6656 6.10563 13.9776 7.19046 15.0624C8.27529 16.1472 9.58728 16.6897 11.1264 16.6897ZM11.1264 22.2529C9.58728 22.2529 8.14084 21.9608 6.78713 21.3767C5.43341 20.7925 4.25586 19.9998 3.25448 18.9984C2.2531 17.997 1.46035 16.8195 0.876207 15.4657C0.292069 14.112 0 12.6656 0 11.1264C0 9.58728 0.292069 8.14084 0.876207 6.78713C1.46035 5.43341 2.2531 4.25586 3.25448 3.25448C4.25586 2.2531 5.43341 1.46035 6.78713 0.876207C8.14084 0.292069 9.58728 0 11.1264 0C12.6656 0 14.112 0.292069 15.4657 0.876207C16.8195 1.46035 17.997 2.2531 18.9984 3.25448C19.9998 4.25586 20.7925 5.43341 21.3767 6.78713C21.9608 8.14084 22.2529 9.58728 22.2529 11.1264C22.2529 12.6656 21.9608 14.112 21.3767 15.4657C20.7925 16.8195 19.9998 17.997 18.9984 18.9984C17.997 19.9998 16.8195 20.7925 15.4657 21.3767C14.112 21.9608 12.6656 22.2529 11.1264 22.2529ZM11.1264 20.0276C13.6113 20.0276 15.7161 19.1653 17.4407 17.4407C19.1653 15.7161 20.0276 13.6113 20.0276 11.1264C20.0276 8.64153 19.1653 6.53678 17.4407 4.81218C15.7161 3.08759 13.6113 2.22529 11.1264 2.22529C8.64153 2.22529 6.53678 3.08759 4.81218 4.81218C3.08759 6.53678 2.22529 8.64153 2.22529 11.1264C2.22529 13.6113 3.08759 15.7161 4.81218 17.4407C6.53678 19.1653 8.64153 20.0276 11.1264 20.0276Z" fill="#9B8338"/>
</svg>
