<svg width="41" height="19" viewBox="0 0 41 19" fill="none" xmlns="http://www.w3.org/2000/svg">
<path d="M39.7318 8.65503C40.4932 5.69033 40.5693 3.09753 40.5721 2.98858C40.5771 2.80327 40.47 2.6332 40.3007 2.55757C36.9384 1.05415 33.4921 0.528687 30.0576 0.996233C27.5871 1.33253 25.1855 2.16501 22.9195 3.47072C21.353 4.37332 19.4067 4.37323 17.8403 3.47072C15.5742 2.16501 13.1726 1.33253 10.7022 0.996233C7.2674 0.528871 3.82147 1.05415 0.459069 2.55757C0.28982 2.6332 0.182709 2.80327 0.187665 2.98858C0.19051 3.09753 0.266599 5.69042 1.02794 8.65503C1.78232 11.5927 2.91052 13.7901 4.39329 15.2206L2.83691 17.0773C2.75073 17.1802 2.71383 17.3157 2.73604 17.4481C2.75825 17.5805 2.83737 17.6966 2.95247 17.7656C3.45884 18.0694 4.0178 18.2173 4.5719 18.2173C5.40346 18.2173 6.22345 17.8838 6.83547 17.2432L7.15359 16.9106C9.43799 17.7643 11.6116 17.6326 13.6269 16.5143C15.9441 15.2286 17.3817 12.9624 18.0324 11.7261C18.4782 10.879 18.9081 10.0351 19.31 9.21785C19.5151 8.80079 19.9151 8.55178 20.3798 8.55178C20.8445 8.55178 21.2444 8.80079 21.4495 9.21776C21.8517 10.0356 22.2816 10.8796 22.7272 11.726C23.3779 12.9624 24.8155 15.2285 27.1327 16.5142C28.2756 17.1484 29.4694 17.4654 30.7055 17.4654C31.6489 17.4654 32.6171 17.28 33.6061 16.9105L33.9241 17.243C34.5363 17.8837 35.3562 18.2172 36.1879 18.2172C36.7418 18.2172 37.301 18.0693 37.8072 17.7655C37.9224 17.6964 38.0015 17.5804 38.0237 17.448C38.0459 17.3156 38.0091 17.1801 37.9228 17.0772L36.3664 15.2205C37.8492 13.79 38.9774 11.5926 39.7318 8.65503ZM38.4206 6.69297C38.3082 6.34677 38.1775 6.02681 38.0383 5.7331C38.6284 6.29803 38.9946 6.80669 39.1514 7.04386C39.0505 7.55473 38.9296 8.08928 38.7849 8.63291C38.75 8.00346 38.6356 7.35492 38.4206 6.69297ZM1.97589 8.63062C1.83124 8.08717 1.71036 7.55289 1.60939 7.04221C1.76671 6.80431 2.13256 6.29693 2.72117 5.73328C2.58212 6.0269 2.45142 6.34686 2.33898 6.69297C2.1243 7.35428 2.01104 8.0019 1.97589 8.63062ZM6.17206 16.609C5.58088 17.2279 4.71572 17.4417 3.92923 17.2029L5.09084 15.8171C5.4522 16.0893 5.83145 16.3226 6.22896 16.5147C6.23658 16.5184 6.2442 16.5218 6.25181 16.5255L6.17206 16.609ZM10.0438 16.5397C9.01294 16.5396 7.87391 16.2903 6.6285 15.6883C6.51221 15.6322 6.39839 15.5721 6.28697 15.5084C5.42585 15.0164 4.72701 14.2868 4.21422 13.4379C2.88445 11.2367 2.54265 9.08036 3.19946 7.01559C3.69628 5.45389 4.62991 4.45712 4.84275 4.24418C7.70319 2.83301 11.1448 3.11368 15.076 5.08235C16.6703 5.88078 17.5056 7.64697 17.1073 9.37746C16.6672 11.2884 15.5999 13.9461 13.0176 15.7935C12.1522 16.2469 11.1611 16.5399 10.0438 16.5397ZM22.2732 8.81272C21.9156 8.08561 21.1902 7.63394 20.38 7.63394H20.3799C19.5696 7.63394 18.8442 8.08561 18.4865 8.81272C18.2988 9.19435 18.1045 9.58214 17.9058 9.97314C17.9404 9.84051 17.9725 9.71027 18.0017 9.58333C18.4954 7.43872 17.4613 5.25041 15.4871 4.26171C12.5323 2.78207 8.18028 1.45322 4.22771 3.52588C2.88583 4.2295 1.95652 5.13403 1.39297 5.80331C1.21711 4.64812 1.14644 3.72414 1.11991 3.2699C4.23248 1.93371 7.41279 1.47489 10.5784 1.90554C12.9304 2.22568 15.2195 3.01979 17.3822 4.26585C19.231 5.33118 21.5285 5.33127 23.3776 4.26585C25.5403 3.01979 27.8293 2.22558 30.1814 1.90554C33.3468 1.4747 36.5274 1.93371 39.6401 3.2699C39.6137 3.72423 39.5434 4.64867 39.3677 5.80432C38.8044 5.13494 37.8748 4.22977 36.5321 3.52579C32.5795 1.45304 28.2276 2.78198 25.2728 4.26153C23.2983 5.25022 22.2643 7.43872 22.7582 9.58333C22.7875 9.71036 22.8196 9.8407 22.8542 9.97341C22.6554 9.58269 22.461 9.19472 22.2732 8.81272ZM27.739 15.7911C25.1591 13.9439 24.0924 11.2877 23.6526 9.37755C23.2542 7.64706 24.0895 5.88078 25.684 5.08235C29.6153 3.11378 33.057 2.8331 35.9179 4.24455C36.1283 4.45373 37.0445 5.42627 37.5479 6.97649C38.2219 9.05273 37.8844 11.2222 36.5459 13.4378C36.0329 14.287 35.3339 15.0167 34.4724 15.5088C34.3611 15.5723 34.2475 15.6322 34.1314 15.6884C31.5335 16.9438 29.4032 16.6644 27.739 15.7911ZM36.8305 17.2029C36.0443 17.4415 35.1788 17.2277 34.5875 16.6087L34.5078 16.5254C34.5154 16.5217 34.523 16.5183 34.5307 16.5147C34.9283 16.3225 35.3074 16.0892 35.6688 15.817L36.8305 17.2029Z" fill="black"/>
</svg>
