<svg width="29" height="33" viewBox="0 0 29 33" fill="none" xmlns="http://www.w3.org/2000/svg">
<path d="M28.2369 25.464C28.1007 23.83 26.9433 22.4683 25.3433 22.0938L17.82 20.3577V18.5875C17.82 18.5534 17.82 18.5194 17.7859 18.5194C19.6242 17.5322 20.9518 15.6598 21.1561 13.4811H21.2242C22.3476 13.4811 23.2667 12.562 23.2667 11.4386C23.2667 10.8258 22.9944 10.2812 22.5859 9.90669V6.67268C22.5859 3.47271 19.9987 0.885498 16.7987 0.885498H12.7136C9.51364 0.885498 6.92643 3.47271 6.92643 6.67268V9.90669C6.51793 10.2812 6.24559 10.8258 6.24559 11.4386C6.24559 12.562 7.16473 13.4811 8.28812 13.4811H8.32217C8.56046 15.6598 9.85407 17.4981 11.6923 18.5194C11.6923 18.5534 11.6583 18.5875 11.6583 18.5875V20.3577L4.13497 22.1279C2.53498 22.5023 1.37755 23.864 1.24138 25.498L0.798828 31.8299C0.798828 31.932 0.83287 32.0342 0.900955 32.1022C0.969039 32.1703 1.03712 32.2044 1.13925 32.2044H14.7562H28.373C28.4752 32.2044 28.5433 32.1703 28.6113 32.1022C28.6794 32.0342 28.7135 31.932 28.7135 31.8299L28.2369 25.464ZM14.7562 24.0342C11.7604 24.0342 10.637 21.9917 10.3647 21.3789L11.7945 21.0385C12.0328 21.6172 12.7817 22.6725 14.7221 22.6725C16.6625 22.6725 17.4114 21.5832 17.6497 21.0385L19.0795 21.3789C18.8753 21.9576 17.7178 24.0342 14.7562 24.0342ZM21.2242 12.8003V10.0769C21.9731 10.0769 22.5859 10.6897 22.5859 11.4386C22.5859 12.1875 21.9731 12.8003 21.2242 12.8003ZM7.60728 6.67268C7.60728 3.84717 9.88811 1.56634 12.7136 1.56634H16.7987C19.6242 1.56634 21.905 3.84717 21.905 6.67268V9.53223C21.7008 9.46414 21.4625 9.39606 21.2242 9.39606C21.2242 9.19181 21.088 9.05564 20.8838 9.05564C18.5008 9.05564 18.1604 7.69395 18.1604 7.62586C18.1263 7.48969 18.0242 7.38757 17.9221 7.35352C17.7859 7.31948 17.6497 7.35352 17.5817 7.45565C16.5604 8.74926 10.7732 9.02159 8.66259 9.02159C8.45833 9.02159 8.32217 9.15776 8.32217 9.36202C8.08387 9.36202 7.84557 9.39606 7.64132 9.49819V6.67268H7.60728ZM6.92643 11.4386C6.92643 10.6897 7.53919 10.0769 8.28812 10.0769V12.8003C7.53919 12.8003 6.92643 12.1875 6.92643 11.4386ZM8.96897 12.8003V9.73648C10.5009 9.70244 15.8455 9.56627 17.6838 8.27267C17.9902 8.81734 18.7391 9.63435 20.5433 9.73648V12.8003C20.5433 16.0003 17.9561 18.5875 14.7562 18.5875C11.5562 18.5875 8.96897 16.0003 8.96897 12.8003ZM14.7562 19.2683C15.6072 19.2683 16.3902 19.0981 17.1391 18.7917V20.5619C17.071 20.7662 16.6966 21.9576 14.7562 21.9576C12.8498 21.9576 12.4413 20.7662 12.3732 20.5619V18.7917C13.1221 19.0981 13.9051 19.2683 14.7562 19.2683ZM23.2667 31.5235V29.1406C23.2667 28.9363 23.1305 28.8001 22.9263 28.8001C22.722 28.8001 22.5859 28.9363 22.5859 29.1406V31.5235H14.7562H6.92643V29.1406C6.92643 28.9363 6.79026 28.8001 6.58601 28.8001C6.38176 28.8001 6.24559 28.9363 6.24559 29.1406V31.5235H1.51372L1.99031 25.5321C2.09243 24.2044 3.04562 23.081 4.33922 22.7747L9.7179 21.5151C9.92215 22.0598 11.1817 24.7151 14.7562 24.7151C18.3306 24.7151 19.5902 22.0598 19.7944 21.5151L25.1731 22.7747C26.4667 23.081 27.4199 24.1704 27.522 25.5321L27.9986 31.5235H23.2667Z" fill="black"/>
<path d="M13.3943 12.1194C13.3943 11.3705 12.7815 10.7577 12.0326 10.7577C11.2837 10.7577 10.6709 11.3705 10.6709 12.1194C10.6709 12.8683 11.2837 13.4811 12.0326 13.4811C12.7815 13.4811 13.3943 12.8683 13.3943 12.1194ZM12.0326 12.8002C11.6581 12.8002 11.3517 12.4938 11.3517 12.1194C11.3517 11.7449 11.6581 11.4385 12.0326 11.4385C12.4071 11.4385 12.7134 11.7449 12.7134 12.1194C12.7134 12.4938 12.4071 12.8002 12.0326 12.8002Z" fill="black"/>
<path d="M17.4794 13.4811C18.2283 13.4811 18.8411 12.8683 18.8411 12.1194C18.8411 11.3705 18.2283 10.7577 17.4794 10.7577C16.7304 10.7577 16.1177 11.3705 16.1177 12.1194C16.1177 12.8683 16.7304 13.4811 17.4794 13.4811ZM17.4794 11.4385C17.8538 11.4385 18.1602 11.7449 18.1602 12.1194C18.1602 12.4938 17.8538 12.8002 17.4794 12.8002C17.1049 12.8002 16.7985 12.4938 16.7985 12.1194C16.7985 11.7449 17.1049 11.4385 17.4794 11.4385Z" fill="black"/>
<path d="M16.6624 16.4768C16.7986 16.3747 16.8326 16.1364 16.7305 16.0002C16.6284 15.864 16.3901 15.83 16.2539 15.9321C15.2327 16.7491 14.2795 16.7491 13.2582 15.9321C13.122 15.83 12.8837 15.83 12.7816 16.0002C12.6795 16.1364 12.6795 16.3747 12.8497 16.4768C13.4625 16.9874 14.1093 17.2257 14.7561 17.2257C15.4029 17.2257 16.0497 16.9874 16.6624 16.4768Z" fill="black"/>
</svg>
