<svg width="129" height="37" viewBox="0 0 129 37" fill="none" xmlns="http://www.w3.org/2000/svg">
<path d="M46.7784 27.3262C45.1701 27.3262 43.7283 26.9607 42.453 26.2296C41.1777 25.4986 40.1705 24.4385 39.4313 23.0495C38.6921 21.6605 38.3226 19.9832 38.3226 18.0174C38.3226 16.0355 38.6921 14.35 39.4313 12.961C40.1786 11.5639 41.1899 10.5038 42.4652 9.7809C43.7486 9.04985 45.1863 8.68432 46.7784 8.68432C47.8344 8.68432 48.8132 8.8346 49.7148 9.13514C50.6164 9.42756 51.4125 9.85807 52.1029 10.4267C52.8015 10.9871 53.3701 11.6776 53.8087 12.498C54.2474 13.3103 54.5276 14.2403 54.6494 15.2882H50.7748C50.7017 14.7927 50.5555 14.3459 50.3362 13.9479C50.125 13.5499 49.8448 13.2128 49.4955 12.9366C49.1543 12.6604 48.7604 12.4493 48.3136 12.303C47.875 12.1487 47.3917 12.0715 46.8637 12.0715C45.9377 12.0715 45.1214 12.3071 44.4147 12.7782C43.7161 13.2412 43.1719 13.9154 42.782 14.8008C42.4002 15.6781 42.2093 16.7503 42.2093 18.0174C42.2093 19.309 42.4043 20.3974 42.7942 21.2828C43.1841 22.1601 43.7283 22.8221 44.4269 23.2689C45.1254 23.7156 45.9336 23.939 46.8515 23.939C47.3633 23.939 47.8384 23.8699 48.2771 23.7319C48.7157 23.5938 49.1056 23.3948 49.4468 23.1348C49.7879 22.8749 50.0722 22.5581 50.2997 22.1845C50.5352 21.8027 50.6936 21.3681 50.7748 20.8807H54.6494C54.552 21.7174 54.3042 22.5216 53.9062 23.2932C53.5163 24.0649 52.9843 24.7553 52.3101 25.3645C51.6359 25.9656 50.8358 26.4449 49.9098 26.8023C48.9838 27.1516 47.94 27.3262 46.7784 27.3262ZM62.1798 27.3506C60.807 27.3506 59.617 27.0582 58.6098 26.4733C57.6107 25.8803 56.839 25.0599 56.2948 24.0121C55.7587 22.9561 55.4906 21.7296 55.4906 20.3325C55.4906 18.9191 55.7587 17.6885 56.2948 16.6406C56.839 15.5847 57.6107 14.7643 58.6098 14.1794C59.617 13.5864 60.807 13.29 62.1798 13.29C63.5607 13.29 64.7507 13.5864 65.7498 14.1794C66.757 14.7643 67.5287 15.5847 68.0648 16.6406C68.609 17.6885 68.8811 18.9191 68.8811 20.3325C68.8811 21.7296 68.609 22.9561 68.0648 24.0121C67.5287 25.0599 66.757 25.8803 65.7498 26.4733C64.7507 27.0582 63.5607 27.3506 62.1798 27.3506ZM62.2041 24.402C62.8296 24.402 63.3535 24.2273 63.7759 23.8781C64.1983 23.5207 64.5151 23.0333 64.7263 22.416C64.9456 21.7986 65.0553 21.096 65.0553 20.3081C65.0553 19.512 64.9456 18.8094 64.7263 18.2002C64.5151 17.591 64.1983 17.1118 63.7759 16.7625C63.3535 16.4132 62.8296 16.2385 62.2041 16.2385C61.5706 16.2385 61.0385 16.4132 60.608 16.7625C60.1856 17.1118 59.8648 17.591 59.6455 18.2002C59.4343 18.8094 59.3287 19.512 59.3287 20.3081C59.3287 21.096 59.4343 21.7986 59.6455 22.416C59.8648 23.0333 60.1856 23.5207 60.608 23.8781C61.0385 24.2273 61.5706 24.402 62.2041 24.402ZM78.7752 21.295V13.4605H82.5401V27.0825H78.9214V24.6091H78.7752C78.4665 25.397 77.9588 26.0387 77.2522 26.5342C76.5455 27.0216 75.6804 27.2612 74.6569 27.2531C73.7472 27.2531 72.943 27.05 72.2444 26.6439C71.554 26.2296 71.0138 25.6407 70.6239 24.8772C70.2422 24.1136 70.0513 23.1998 70.0513 22.1357V13.4605H73.8162V21.4778C73.8162 22.2738 74.0315 22.9074 74.462 23.3785C74.8925 23.8415 75.4651 24.069 76.18 24.0608C76.6348 24.0608 77.0572 23.9593 77.4471 23.7562C77.837 23.545 78.1538 23.2323 78.3975 22.818C78.6493 22.4038 78.7752 21.8961 78.7752 21.295ZM91.496 13.4605V16.3117H83.296V13.4605H91.496ZM85.1602 10.2195H88.9252V22.8911C88.9252 23.346 89.0267 23.6831 89.2298 23.9024C89.4328 24.1136 89.7577 24.2192 90.2045 24.2192C90.3507 24.2192 90.5132 24.207 90.6919 24.1827C90.8706 24.1583 91.0249 24.1299 91.1549 24.0974L91.7519 26.9241C91.3376 27.046 90.9355 27.1353 90.5457 27.1922C90.1639 27.249 89.7862 27.2775 89.4125 27.2775C88.056 27.2775 87.0082 26.9404 86.269 26.2662C85.5298 25.5839 85.1602 24.6254 85.1602 23.3907V10.2195ZM101.366 21.295V13.4605H105.131V27.0825H101.512V24.6091H101.366C101.057 25.397 100.549 26.0387 99.8427 26.5342C99.136 27.0216 98.2709 27.2612 97.2475 27.2531C96.3377 27.2531 95.5336 27.05 94.835 26.6439C94.1445 26.2296 93.6044 25.6407 93.2145 24.8772C92.8327 24.1136 92.6418 23.1998 92.6418 22.1357V13.4605H96.4068V21.4778C96.4068 22.2738 96.622 22.9074 97.0525 23.3785C97.483 23.8415 98.0557 24.069 98.7705 24.0608C99.2254 24.0608 99.6478 23.9593 100.038 23.7562C100.428 23.545 100.744 23.2323 100.988 22.818C101.24 22.4038 101.366 21.8961 101.366 21.295ZM106.861 27.0825V13.4605H110.504V15.8487H110.651C110.902 15.0039 111.321 14.3662 111.906 13.9357C112.49 13.4971 113.161 13.2778 113.916 13.2778C114.111 13.2778 114.314 13.29 114.525 13.3143C114.745 13.3306 114.939 13.3631 115.11 13.4118V16.7503C114.931 16.6934 114.684 16.6488 114.367 16.6163C114.058 16.5756 113.77 16.5553 113.502 16.5553C112.958 16.5553 112.466 16.6772 112.027 16.9209C111.589 17.1564 111.244 17.4895 110.992 17.92C110.748 18.3424 110.626 18.8297 110.626 19.3821V27.0825H106.861ZM121.312 27.3506C119.915 27.3506 118.709 27.0663 117.694 26.4977C116.678 25.9291 115.898 25.1209 115.354 24.073C114.818 23.017 114.55 21.7702 114.55 20.3325C114.55 18.9353 114.818 17.7088 115.354 16.6528C115.898 15.5968 116.662 14.7724 117.645 14.1794C118.636 13.5864 119.797 13.29 121.13 13.29C122.031 13.29 122.872 13.4362 123.652 13.7286C124.431 14.0129 125.114 14.4434 125.699 15.0201C126.283 15.5887 126.738 16.3076 127.063 17.1767C127.388 18.0378 127.551 19.049 127.551 20.2106V21.2341H116.049V18.9069H125.723L123.968 19.5161C123.968 18.8257 123.863 18.2246 123.652 17.7128C123.44 17.2011 123.124 16.8071 122.701 16.531C122.287 16.2467 121.771 16.1045 121.154 16.1045C120.537 16.1045 120.013 16.2467 119.582 16.531C119.16 16.8153 118.835 17.2011 118.607 17.6885C118.38 18.1758 118.266 18.7363 118.266 19.3699V21.0148C118.266 21.7539 118.396 22.3875 118.656 22.9155C118.916 23.4354 119.278 23.8375 119.741 24.1218C120.212 24.3979 120.752 24.536 121.361 24.536C121.783 24.536 122.165 24.4751 122.506 24.3533C122.848 24.2314 123.14 24.0527 123.384 23.8171C123.635 23.5816 123.822 23.2973 123.944 22.9642L127.429 23.1957C127.258 24.0324 126.901 24.7635 126.357 25.3889C125.82 26.0062 125.126 26.4896 124.273 26.8388C123.42 27.18 122.433 27.3506 121.312 27.3506Z" fill="black"/>
<path d="M18.2215 29.3782C16.3052 29.3782 14.5874 28.9427 13.0679 28.0717C11.5484 27.2006 10.3483 25.9376 9.46756 24.2826C8.58684 22.6277 8.14648 20.6291 8.14648 18.287C8.14648 15.9255 8.58684 13.9172 9.46756 12.2622C10.358 10.5976 11.5629 9.33456 13.0824 8.4732C14.6116 7.60216 16.3246 7.16663 18.2215 7.16663C19.4797 7.16663 20.6459 7.34568 21.7202 7.70378C22.7945 8.05219 23.743 8.56514 24.5656 9.24262C25.398 9.91042 26.0754 10.7331 26.5981 11.7106C27.1207 12.6784 27.4546 13.7866 27.5998 15.0351H22.9832C22.8961 14.4447 22.7219 13.9124 22.4606 13.4381C22.209 12.9639 21.8751 12.5623 21.4589 12.2332C21.0524 11.9041 20.583 11.6525 20.0507 11.4783C19.5281 11.2944 18.9523 11.2025 18.3232 11.2025C17.2198 11.2025 16.2472 11.4831 15.4052 12.0445C14.5728 12.5961 13.9244 13.3994 13.4598 14.4544C13.005 15.4996 12.7775 16.7771 12.7775 18.287C12.7775 19.8258 13.0098 21.1227 13.4744 22.1776C13.9389 23.2229 14.5874 24.0116 15.4197 24.5439C16.252 25.0763 17.215 25.3424 18.3086 25.3424C18.9184 25.3424 19.4846 25.2601 20.0072 25.0956C20.5298 24.9311 20.9944 24.694 21.4009 24.3843C21.8073 24.0746 22.1461 23.6971 22.4171 23.2519C22.6977 22.797 22.8865 22.2792 22.9832 21.6985H27.5998C27.4836 22.6954 27.1884 23.6535 26.7142 24.573C26.2497 25.4924 25.6157 26.3151 24.8124 27.0409C24.0091 27.7571 23.0558 28.3281 21.9525 28.754C20.8492 29.1702 19.6055 29.3782 18.2215 29.3782Z" fill="#9B8338"/>
<path d="M10.9339 29.3782C12.8502 29.3782 14.5681 28.9427 16.0876 28.0717C17.6071 27.2006 18.8072 25.9376 19.6879 24.2826C20.5686 22.6277 21.009 20.6291 21.009 18.287C21.009 15.9255 20.5686 13.9172 19.6879 12.2622C18.7975 10.5976 17.5926 9.33456 16.0731 8.4732C14.5439 7.60216 12.8309 7.16663 10.9339 7.16663C9.67576 7.16663 8.50953 7.34568 7.43524 7.70378C6.36095 8.05219 5.41248 8.56514 4.58983 9.24262C3.7575 9.91042 3.08002 10.7331 2.5574 11.7106C2.03477 12.6784 1.70087 13.7866 1.5557 15.0351H6.17223C6.25933 14.4447 6.43354 13.9124 6.69485 13.4381C6.94649 12.9639 7.28039 12.5623 7.69655 12.2332C8.10304 11.9041 8.57243 11.6525 9.10474 11.4783C9.62736 11.2944 10.2032 11.2025 10.8323 11.2025C11.9356 11.2025 12.9083 11.4831 13.7503 12.0445C14.5826 12.5961 15.2311 13.3994 15.6956 14.4544C16.1505 15.4996 16.3779 16.7771 16.3779 18.287C16.3779 19.8258 16.1457 21.1227 15.6811 22.1776C15.2166 23.2229 14.5681 24.0116 13.7358 24.5439C12.9035 25.0763 11.9405 25.3424 10.8468 25.3424C10.2371 25.3424 9.67092 25.2601 9.14829 25.0956C8.62566 24.9311 8.16111 24.694 7.75462 24.3843C7.34813 24.0746 7.0094 23.6971 6.7384 23.2519C6.45773 22.797 6.26901 22.2792 6.17223 21.6985H1.5557C1.67184 22.6954 1.96702 23.6535 2.44126 24.573C2.90581 25.4924 3.53974 26.3151 4.34303 27.0409C5.14633 27.7571 6.09964 28.3281 7.20296 28.754C8.30628 29.1702 9.54994 29.3782 10.9339 29.3782Z" fill="#9B8338"/>
</svg>
