<svg width="421" height="72" viewBox="0 0 421 72" fill="none" xmlns="http://www.w3.org/2000/svg">
<path d="M92.6279 54.4883C89.4053 54.4883 86.5163 53.7559 83.9609 52.291C81.4056 50.8262 79.3874 48.7021 77.9062 45.9189C76.4251 43.1357 75.6846 39.7747 75.6846 35.8359C75.6846 31.8646 76.4251 28.4873 77.9062 25.7041C79.4036 22.9046 81.43 20.7806 83.9854 19.332C86.557 17.8672 89.4378 17.1348 92.6279 17.1348C94.7438 17.1348 96.7051 17.4359 98.5117 18.0381C100.318 18.624 101.913 19.4867 103.297 20.626C104.697 21.749 105.836 23.1325 106.715 24.7764C107.594 26.404 108.155 28.2676 108.399 30.3672H100.636C100.489 29.3743 100.196 28.4792 99.7568 27.6816C99.3337 26.8841 98.7721 26.2087 98.0723 25.6553C97.3887 25.1019 96.5993 24.6787 95.7041 24.3857C94.8252 24.0765 93.8568 23.9219 92.7988 23.9219C90.9434 23.9219 89.3076 24.3939 87.8916 25.3379C86.4919 26.2656 85.4014 27.6165 84.6201 29.3906C83.8551 31.1484 83.4727 33.2969 83.4727 35.8359C83.4727 38.4238 83.8633 40.6048 84.6445 42.3789C85.4258 44.1367 86.5163 45.4632 87.916 46.3584C89.3158 47.2536 90.9352 47.7012 92.7744 47.7012C93.7998 47.7012 94.752 47.5628 95.6309 47.2861C96.5098 47.0094 97.291 46.6107 97.9746 46.0898C98.6582 45.569 99.2279 44.9342 99.6836 44.1855C100.156 43.4206 100.473 42.5498 100.636 41.5732H108.399C108.204 43.2497 107.708 44.861 106.91 46.4072C106.129 47.9535 105.063 49.3369 103.712 50.5576C102.361 51.762 100.758 52.7223 98.9023 53.4385C97.0469 54.1383 94.9554 54.4883 92.6279 54.4883ZM124.488 54.5371C121.738 54.5371 119.353 53.9512 117.335 52.7793C115.333 51.5911 113.787 49.9473 112.696 47.8477C111.622 45.7318 111.085 43.2741 111.085 40.4746C111.085 37.6426 111.622 35.1768 112.696 33.0771C113.787 30.9613 115.333 29.3174 117.335 28.1455C119.353 26.9574 121.738 26.3633 124.488 26.3633C127.255 26.3633 129.64 26.9574 131.642 28.1455C133.66 29.3174 135.206 30.9613 136.28 33.0771C137.371 35.1768 137.916 37.6426 137.916 40.4746C137.916 43.2741 137.371 45.7318 136.28 47.8477C135.206 49.9473 133.66 51.5911 131.642 52.7793C129.64 53.9512 127.255 54.5371 124.488 54.5371ZM124.537 48.6289C125.79 48.6289 126.84 48.279 127.687 47.5791C128.533 46.863 129.168 45.8864 129.591 44.6494C130.03 43.4124 130.25 42.0046 130.25 40.4258C130.25 38.8307 130.03 37.4229 129.591 36.2021C129.168 34.9814 128.533 34.0212 127.687 33.3213C126.84 32.6214 125.79 32.2715 124.537 32.2715C123.268 32.2715 122.201 32.6214 121.339 33.3213C120.493 34.0212 119.85 34.9814 119.41 36.2021C118.987 37.4229 118.775 38.8307 118.775 40.4258C118.775 42.0046 118.987 43.4124 119.41 44.6494C119.85 45.8864 120.493 46.863 121.339 47.5791C122.201 48.279 123.268 48.6289 124.537 48.6289ZM158.741 42.4033V26.7051H166.285V54H159.034V49.0439H158.741C158.123 50.6227 157.105 51.9085 155.689 52.9014C154.273 53.8779 152.54 54.3581 150.489 54.3418C148.666 54.3418 147.055 53.9349 145.655 53.1211C144.272 52.291 143.189 51.111 142.408 49.5811C141.643 48.0511 141.261 46.2201 141.261 44.0879V26.7051H148.805V42.7695C148.805 44.3646 149.236 45.6341 150.099 46.5781C150.961 47.5059 152.109 47.9616 153.541 47.9453C154.452 47.9453 155.299 47.7419 156.08 47.335C156.861 46.9118 157.496 46.2852 157.984 45.4551C158.489 44.625 158.741 43.6077 158.741 42.4033ZM185.23 26.7051V32.418H168.8V26.7051H185.23ZM172.535 20.2109H180.079V45.6016C180.079 46.513 180.283 47.1885 180.689 47.6279C181.096 48.0511 181.747 48.2627 182.643 48.2627C182.936 48.2627 183.261 48.2383 183.619 48.1895C183.977 48.1406 184.286 48.0837 184.547 48.0186L185.743 53.6826C184.913 53.9268 184.107 54.1058 183.326 54.2197C182.561 54.3337 181.804 54.3906 181.056 54.3906C178.338 54.3906 176.238 53.7152 174.757 52.3643C173.276 50.9971 172.535 49.0765 172.535 46.6025V20.2109ZM206.007 42.4033V26.7051H213.551V54H206.3V49.0439H206.007C205.388 50.6227 204.371 51.9085 202.955 52.9014C201.539 53.8779 199.806 54.3581 197.755 54.3418C195.932 54.3418 194.321 53.9349 192.921 53.1211C191.537 52.291 190.455 51.111 189.674 49.5811C188.909 48.0511 188.526 46.2201 188.526 44.0879V26.7051H196.07V42.7695C196.07 44.3646 196.502 45.6341 197.364 46.5781C198.227 47.5059 199.374 47.9616 200.807 47.9453C201.718 47.9453 202.564 47.7419 203.346 47.335C204.127 46.9118 204.762 46.2852 205.25 45.4551C205.755 44.625 206.007 43.6077 206.007 42.4033ZM218.019 54V26.7051H225.318V31.4902H225.611C226.116 29.7975 226.954 28.5199 228.126 27.6572C229.298 26.7783 230.641 26.3389 232.154 26.3389C232.545 26.3389 232.952 26.3633 233.375 26.4121C233.814 26.4447 234.205 26.5098 234.547 26.6074V33.2969C234.189 33.1829 233.692 33.0934 233.058 33.0283C232.439 32.9469 231.861 32.9062 231.324 32.9062C230.234 32.9062 229.249 33.1504 228.37 33.6387C227.491 34.1107 226.799 34.778 226.295 35.6406C225.807 36.487 225.562 37.4635 225.562 38.5703V54H218.019ZM247.975 54.5371C245.175 54.5371 242.758 53.9674 240.724 52.8281C238.689 51.6888 237.127 50.0693 236.036 47.9697C234.962 45.8538 234.425 43.3555 234.425 40.4746C234.425 37.6751 234.962 35.2174 236.036 33.1016C237.127 30.9857 238.657 29.3337 240.626 28.1455C242.612 26.9574 244.939 26.3633 247.608 26.3633C249.415 26.3633 251.1 26.6562 252.662 27.2422C254.225 27.8118 255.592 28.6745 256.764 29.8301C257.936 30.9694 258.847 32.4098 259.498 34.1514C260.149 35.8766 260.475 37.903 260.475 40.2305V42.2812H237.428V37.6182H256.812L253.297 38.8389C253.297 37.4554 253.085 36.251 252.662 35.2256C252.239 34.2002 251.604 33.4108 250.758 32.8574C249.928 32.2878 248.894 32.0029 247.657 32.0029C246.42 32.0029 245.37 32.2878 244.508 32.8574C243.661 33.4271 243.01 34.2002 242.555 35.1768C242.099 36.1533 241.871 37.2764 241.871 38.5459V41.8418C241.871 43.3229 242.132 44.5924 242.652 45.6504C243.173 46.6921 243.897 47.4977 244.825 48.0674C245.769 48.6208 246.852 48.8975 248.072 48.8975C248.919 48.8975 249.684 48.7754 250.367 48.5312C251.051 48.2871 251.637 47.929 252.125 47.457C252.63 46.985 253.004 46.4154 253.248 45.748L260.23 46.2119C259.889 47.8883 259.173 49.3532 258.082 50.6064C257.008 51.8434 255.616 52.8118 253.907 53.5117C252.198 54.1953 250.221 54.5371 247.975 54.5371ZM290.089 54.4883C286.866 54.4883 283.977 53.7559 281.422 52.291C278.867 50.8262 276.848 48.7021 275.367 45.9189C273.886 43.1357 273.146 39.7747 273.146 35.8359C273.146 31.8646 273.886 28.4873 275.367 25.7041C276.865 22.9046 278.891 20.7806 281.446 19.332C284.018 17.8672 286.899 17.1348 290.089 17.1348C292.205 17.1348 294.166 17.4359 295.973 18.0381C297.779 18.624 299.374 19.4867 300.758 20.626C302.158 21.749 303.297 23.1325 304.176 24.7764C305.055 26.404 305.616 28.2676 305.86 30.3672H298.097C297.95 29.3743 297.657 28.4792 297.218 27.6816C296.795 26.8841 296.233 26.2087 295.533 25.6553C294.85 25.1019 294.06 24.6787 293.165 24.3857C292.286 24.0765 291.318 23.9219 290.26 23.9219C288.404 23.9219 286.769 24.3939 285.353 25.3379C283.953 26.2656 282.862 27.6165 282.081 29.3906C281.316 31.1484 280.934 33.2969 280.934 35.8359C280.934 38.4238 281.324 40.6048 282.105 42.3789C282.887 44.1367 283.977 45.4632 285.377 46.3584C286.777 47.2536 288.396 47.7012 290.235 47.7012C291.261 47.7012 292.213 47.5628 293.092 47.2861C293.971 47.0094 294.752 46.6107 295.436 46.0898C296.119 45.569 296.689 44.9342 297.145 44.1855C297.617 43.4206 297.934 42.5498 298.097 41.5732H305.86C305.665 43.2497 305.169 44.861 304.371 46.4072C303.59 47.9535 302.524 49.3369 301.173 50.5576C299.822 51.762 298.219 52.7223 296.363 53.4385C294.508 54.1383 292.416 54.4883 290.089 54.4883ZM317.213 17.623V54H309.669V17.623H317.213ZM333.961 54.5371C331.21 54.5371 328.826 53.9512 326.808 52.7793C324.806 51.5911 323.259 49.9473 322.169 47.8477C321.095 45.7318 320.558 43.2741 320.558 40.4746C320.558 37.6426 321.095 35.1768 322.169 33.0771C323.259 30.9613 324.806 29.3174 326.808 28.1455C328.826 26.9574 331.21 26.3633 333.961 26.3633C336.728 26.3633 339.112 26.9574 341.114 28.1455C343.132 29.3174 344.679 30.9613 345.753 33.0771C346.843 35.1768 347.389 37.6426 347.389 40.4746C347.389 43.2741 346.843 45.7318 345.753 47.8477C344.679 49.9473 343.132 51.5911 341.114 52.7793C339.112 53.9512 336.728 54.5371 333.961 54.5371ZM334.01 48.6289C335.263 48.6289 336.313 48.279 337.159 47.5791C338.006 46.863 338.64 45.8864 339.063 44.6494C339.503 43.4124 339.723 42.0046 339.723 40.4258C339.723 38.8307 339.503 37.4229 339.063 36.2021C338.64 34.9814 338.006 34.0212 337.159 33.3213C336.313 32.6214 335.263 32.2715 334.01 32.2715C332.74 32.2715 331.674 32.6214 330.812 33.3213C329.965 34.0212 329.322 34.9814 328.883 36.2021C328.46 37.4229 328.248 38.8307 328.248 40.4258C328.248 42.0046 328.46 43.4124 328.883 44.6494C329.322 45.8864 329.965 46.863 330.812 47.5791C331.674 48.279 332.74 48.6289 334.01 48.6289ZM373.39 34.4932L366.48 34.9082C366.301 34.0456 365.821 33.305 365.04 32.6865C364.259 32.0518 363.209 31.7344 361.891 31.7344C360.719 31.7344 359.734 31.9785 358.937 32.4668C358.155 32.9551 357.765 33.6061 357.765 34.4199C357.765 35.071 358.017 35.6325 358.521 36.1045C359.042 36.5602 359.929 36.9183 361.183 37.1787L366.139 38.1553C368.792 38.6924 370.769 39.5632 372.071 40.7676C373.373 41.972 374.024 43.5589 374.024 45.5283C374.024 47.335 373.504 48.9137 372.462 50.2646C371.42 51.5993 369.988 52.6491 368.165 53.4141C366.342 54.1628 364.251 54.5371 361.891 54.5371C358.277 54.5371 355.396 53.7803 353.248 52.2666C351.116 50.7529 349.871 48.7021 349.513 46.1143L356.91 45.7236C357.154 46.8304 357.708 47.6686 358.57 48.2383C359.433 48.8079 360.54 49.0928 361.891 49.0928C363.209 49.0928 364.275 48.8324 365.089 48.3115C365.919 47.7907 366.334 47.1315 366.334 46.334C366.334 44.9831 365.162 44.0716 362.818 43.5996L358.106 42.623C355.453 42.0859 353.476 41.1663 352.174 39.8643C350.872 38.5622 350.221 36.8939 350.221 34.8594C350.221 33.1016 350.701 31.5879 351.661 30.3184C352.621 29.0488 353.964 28.0723 355.689 27.3887C357.431 26.7051 359.465 26.3633 361.793 26.3633C365.243 26.3633 367.953 27.0957 369.923 28.5605C371.909 30.0091 373.064 31.9867 373.39 34.4932ZM389.625 54.5371C386.826 54.5371 384.409 53.9674 382.374 52.8281C380.34 51.6888 378.777 50.0693 377.687 47.9697C376.612 45.8538 376.075 43.3555 376.075 40.4746C376.075 37.6751 376.612 35.2174 377.687 33.1016C378.777 30.9857 380.307 29.3337 382.276 28.1455C384.262 26.9574 386.59 26.3633 389.259 26.3633C391.065 26.3633 392.75 26.6562 394.312 27.2422C395.875 27.8118 397.242 28.6745 398.414 29.8301C399.586 30.9694 400.497 32.4098 401.148 34.1514C401.799 35.8766 402.125 37.903 402.125 40.2305V42.2812H379.078V37.6182H398.463L394.947 38.8389C394.947 37.4554 394.736 36.251 394.312 35.2256C393.889 34.2002 393.255 33.4108 392.408 32.8574C391.578 32.2878 390.545 32.0029 389.308 32.0029C388.071 32.0029 387.021 32.2878 386.158 32.8574C385.312 33.4271 384.661 34.2002 384.205 35.1768C383.749 36.1533 383.521 37.2764 383.521 38.5459V41.8418C383.521 43.3229 383.782 44.5924 384.303 45.6504C384.824 46.6921 385.548 47.4977 386.476 48.0674C387.42 48.6208 388.502 48.8975 389.723 48.8975C390.569 48.8975 391.334 48.7754 392.018 48.5312C392.701 48.2871 393.287 47.929 393.775 47.457C394.28 46.985 394.654 46.4154 394.898 45.748L401.881 46.2119C401.539 47.8883 400.823 49.3532 399.732 50.6064C398.658 51.8434 397.267 52.8118 395.558 53.5117C393.849 54.1953 391.871 54.5371 389.625 54.5371ZM419.85 26.7051V32.418H403.419V26.7051H419.85ZM407.154 20.2109H414.698V45.6016C414.698 46.513 414.902 47.1885 415.309 47.6279C415.715 48.0511 416.367 48.2627 417.262 48.2627C417.555 48.2627 417.88 48.2383 418.238 48.1895C418.596 48.1406 418.906 48.0837 419.166 48.0186L420.362 53.6826C419.532 53.9268 418.727 54.1058 417.945 54.2197C417.18 54.3337 416.424 54.3906 415.675 54.3906C412.957 54.3906 410.857 53.7152 409.376 52.3643C407.895 50.9971 407.154 49.0765 407.154 46.6025V20.2109Z" fill="black"/>
<path d="M35.4077 58.5818C31.568 58.5818 28.1258 57.7091 25.0811 55.9638C22.0365 54.2184 19.6318 51.6877 17.867 48.3715C16.1023 45.0554 15.2199 41.0508 15.2199 36.3577C15.2199 31.6259 16.1023 27.6019 17.867 24.2857C19.6512 20.9502 22.0655 18.4194 25.1102 16.6935C28.1743 14.9481 31.6068 14.0755 35.4077 14.0755C37.9288 14.0755 40.2656 14.4342 42.4182 15.1518C44.5708 15.8499 46.4713 16.8777 48.1197 18.2352C49.7875 19.5733 51.1449 21.2217 52.1922 23.1804C53.2394 25.1196 53.9084 27.3401 54.1993 29.8418H44.949C44.7744 28.6588 44.4254 27.5922 43.9018 26.642C43.3976 25.6917 42.7285 24.8869 41.8946 24.2276C41.0801 23.5682 40.1396 23.064 39.073 22.7149C38.0258 22.3465 36.8719 22.1622 35.6114 22.1622C33.4006 22.1622 31.4516 22.7246 29.7645 23.8494C28.0967 24.9548 26.7974 26.5644 25.8665 28.6782C24.9551 30.7726 24.4993 33.3324 24.4993 36.3577C24.4993 39.4412 24.9648 42.0398 25.8956 44.1536C26.8265 46.248 28.1258 47.8285 29.7936 48.8951C31.4613 49.9617 33.3909 50.495 35.5823 50.495C36.804 50.495 37.9385 50.3302 38.9857 50.0005C40.0329 49.6708 40.9638 49.1957 41.7783 48.5751C42.5928 47.9546 43.2715 47.1982 43.8145 46.3062C44.3769 45.3947 44.755 44.3572 44.949 43.1937H54.1993C53.9666 45.1911 53.3751 47.111 52.4249 48.9533C51.494 50.7956 50.2238 52.444 48.6142 53.8984C47.0046 55.3335 45.0944 56.4777 42.8836 57.331C40.6729 58.1648 38.1809 58.5818 35.4077 58.5818Z" fill="black"/>
<path d="M20.805 58.5818C24.6448 58.5818 28.087 57.7091 31.1316 55.9638C34.1763 54.2184 36.581 51.6877 38.3457 48.3715C40.1105 45.0554 40.9929 41.0508 40.9929 36.3577C40.9929 31.6259 40.1105 27.6019 38.3457 24.2857C36.5616 20.9502 34.1472 18.4194 31.1026 16.6935C28.0385 14.9481 24.606 14.0755 20.805 14.0755C18.284 14.0755 15.9471 14.4342 13.7945 15.1518C11.642 15.8499 9.74147 16.8777 8.09309 18.2352C6.42531 19.5733 5.06782 21.2217 4.02061 23.1804C2.97341 25.1196 2.30436 27.3401 2.01347 29.8418H11.2638C11.4383 28.6588 11.7874 27.5922 12.311 26.642C12.8152 25.6917 13.4843 24.8869 14.3182 24.2276C15.1326 23.5682 16.0732 23.064 17.1398 22.7149C18.187 22.3465 19.3409 22.1622 20.6014 22.1622C22.8122 22.1622 24.7611 22.7246 26.4483 23.8494C28.1161 24.9548 29.4154 26.5644 30.3462 28.6782C31.2577 30.7726 31.7134 33.3324 31.7134 36.3577C31.7134 39.4412 31.248 42.0398 30.3172 44.1536C29.3863 46.248 28.087 47.8285 26.4192 48.8951C24.7514 49.9617 22.8219 50.495 20.6305 50.495C19.4087 50.495 18.2743 50.3302 17.2271 50.0005C16.1799 49.6708 15.249 49.1957 14.4345 48.5751C13.62 47.9546 12.9413 47.1982 12.3983 46.3062C11.8359 45.3947 11.4577 44.3572 11.2638 43.1937H2.01347C2.24618 45.1911 2.83766 47.111 3.7879 48.9533C4.71875 50.7956 5.98897 52.444 7.59857 53.8984C9.20817 55.3335 11.1184 56.4777 13.3291 57.331C15.5399 58.1648 18.0319 58.5818 20.805 58.5818Z" fill="black"/>
</svg>
